<svg xmlns="http://www.w3.org/2000/svg" viewBox="0 0 64 64" role="img" aria-label="Balloon favicon">
  <defs>
    <linearGradient id="balloonFill" x1="0" y1="0" x2="1" y2="1">
      <stop offset="0%" stop-color="#ff7f50" />
      <stop offset="55%" stop-color="#ff5a5f" />
      <stop offset="100%" stop-color="#d7265b" />
    </linearGradient>
  </defs>
  <rect width="64" height="64" rx="14" fill="#fff7ed" />
  <path d="M32 8c-10.7 0-18 8.3-18 18.8C14 37.9 22.8 46 32 46s18-8.1 18-19.2C50 16.3 42.7 8 32 8Z" fill="url(#balloonFill)" />
  <path d="M24 16.5c2.8-3.5 6.6-5.2 10.8-5.2" fill="none" stroke="#ffd7cf" stroke-linecap="round" stroke-width="3.5" opacity="0.9" />
  <path d="M30.5 46h3l-2.3 4.8 3.8 1.7-5.2 2.7-4.6-2.7 3.4-1.7Z" fill="#c2184d" />
  <path d="M31.5 51.5c3 2.9 4.4 5.8 4.2 8.5" fill="none" stroke="#7c3a2d" stroke-linecap="round" stroke-width="2.2" />
</svg>
